<?xml version="1.0" encoding="UTF-8" standalone="no"?>
<svg
   xmlns:dc="http://purl.org/dc/elements/1.1/"
   xmlns:cc="http://creativecommons.org/ns#"
   xmlns:rdf="http://www.w3.org/1999/02/22-rdf-syntax-ns#"
   xmlns:svg="http://www.w3.org/2000/svg"
   xmlns="http://www.w3.org/2000/svg"
   id="svg8"
   version="1.1"
   viewBox="0 0 203.19999 82.550002"
   height="312"
   width="768">
  <defs
     id="defs2" />
  <metadata
     id="metadata5">
    <rdf:RDF>
      <cc:Work
         rdf:about="">
        <dc:format>image/svg+xml</dc:format>
        <dc:type
           rdf:resource="http://purl.org/dc/dcmitype/StillImage" />
        <dc:title></dc:title>
      </cc:Work>
    </rdf:RDF>
  </metadata>
  <g
     transform="translate(0,-214.44997)"
     id="layer1">
    <path
       id="path4605"
       d="m 116.32423,293.41572 c 0.0575,-0.13624 0.24994,-0.58659 0.42766,-1.00077 0.17771,-0.41418 0.32237,-0.78694 0.32146,-0.82836 -9e-4,-0.0414 -0.41261,-1.08656 -0.91488,-2.32253 -0.50228,-1.23598 -0.91324,-2.26108 -0.91324,-2.278 0,-0.0169 0.29903,-0.0308 0.66451,-0.0308 h 0.66452 l 0.55212,1.60024 c 0.30367,0.88014 0.5734,1.62511 0.5994,1.6555 0.026,0.0304 0.16146,-0.25293 0.30104,-0.62958 0.13958,-0.37666 0.43281,-1.11316 0.65163,-1.63667 l 0.39785,-0.95184 0.64361,-0.0217 c 0.57804,-0.0195 0.63865,-0.009 0.59483,0.1054 -0.0268,0.0699 -0.66772,1.57077 -1.42419,3.3352 l -1.37539,3.20804 -0.64773,0.0218 -0.64772,0.0218 z m -12.75188,0.0208 c -0.57718,-0.17558 -1.11813,-0.60268 -1.36161,-1.07506 -0.25343,-0.49167 -0.21389,-0.56045 0.38354,-0.66722 0.29016,-0.0519 0.53584,-0.0803 0.54596,-0.0633 0.0101,0.017 0.0696,0.13263 0.13208,0.25688 0.14427,0.28677 0.68381,0.5648 1.09605,0.5648 0.52689,0 1.04833,-0.45572 1.13541,-0.9923 l 0.0443,-0.27336 -0.44168,0.22567 c -0.39838,0.20356 -0.49128,0.22175 -0.9476,0.18558 -0.92506,-0.0733 -1.61733,-0.52856 -1.9521,-1.28372 -0.24597,-0.55484 -0.24754,-1.58249 -0.003,-2.12409 0.48601,-1.07748 1.73592,-1.62185 2.85425,-1.24309 0.5698,0.19298 0.54834,0.19267 0.54834,0.008 0,-0.13734 0.0502,-0.15062 0.5694,-0.15062 h 0.5694 l -0.0234,2.50392 c -0.023,2.45269 -0.0271,2.51205 -0.2031,2.90149 -0.22099,0.48901 -0.78435,1.01314 -1.26499,1.17692 -0.36676,0.12496 -1.33887,0.1536 -1.68102,0.0495 z m 1.35886,-3.03601 c 0.62157,-0.31343 0.85333,-1.14643 0.51399,-1.8474 -0.44052,-0.91 -1.6758,-0.90347 -2.1508,0.0114 -0.15641,0.30125 -0.1588,0.99445 -0.004,1.29006 0.3464,0.66339 0.98629,0.87625 1.64126,0.54596 z m 64.21119,2.97686 c -0.62139,-0.20715 -1.33376,-0.97736 -1.33376,-1.44208 0,-0.12255 0.0871,-0.16232 0.52756,-0.24105 0.29016,-0.0519 0.53584,-0.0803 0.54596,-0.0633 0.0101,0.017 0.0696,0.13263 0.13208,0.25688 0.14427,0.28677 0.68381,0.5648 1.09605,0.5648 0.52689,0 1.04833,-0.45572 1.13541,-0.9923 l 0.0444,-0.27336 -0.44167,0.22536 c -0.38969,0.19883 -0.49945,0.22147 -0.93239,0.19231 -0.91013,-0.0613 -1.63175,-0.5344 -1.96789,-1.29014 -0.24366,-0.54783 -0.24379,-1.57661 0,-2.12409 0.47818,-1.07504 1.73302,-1.62201 2.85185,-1.24309 0.56979,0.19298 0.54834,0.19267 0.54834,0.008 0,-0.13734 0.0502,-0.15062 0.5694,-0.15062 h 0.5694 l -0.0234,2.50392 c -0.023,2.45269 -0.0271,2.51205 -0.2031,2.90149 -0.22098,0.48901 -0.78434,1.01314 -1.26499,1.17692 -0.44952,0.15316 -1.37904,0.14834 -1.85289,-0.01 z m 1.56552,-2.97841 c 0.5887,-0.32932 0.80675,-1.16923 0.4792,-1.84585 -0.44052,-0.91 -1.6758,-0.90347 -2.1508,0.0114 -0.15641,0.30125 -0.1588,0.99445 -0.004,1.29006 0.34633,0.66326 1.05317,0.89286 1.67604,0.54441 z M 3.1442312,291.73808 c -0.2531169,-0.0551 -0.5919928,-0.16766 -0.7530575,-0.25021 -0.3680237,-0.18862 -0.8295108,-0.646 -1.0130827,-1.00405 l -0.140687,-0.27441 0.5151532,-0.2707 0.5151533,-0.27071 0.1938655,0.29295 c 0.1302583,0.19684 0.3371951,0.36333 0.6307138,0.50746 0.3819648,0.18756 0.5219974,0.21451 1.1145999,0.21451 0.5758055,0 0.7247521,-0.0269 0.9902161,-0.17904 0.729807,-0.41818 0.667561,-1.23192 -0.119453,-1.56161 -0.142353,-0.0596 -0.5828918,-0.15736 -0.978975,-0.21718 -1.3536984,-0.20443 -2.0005853,-0.51035 -2.3420235,-1.10755 -0.2644951,-0.46263 -0.2632129,-1.23904 0.00283,-1.71302 0.4226444,-0.75299 1.2134872,-1.09949 2.4850591,-1.08881 1.0275954,0.009 1.5260014,0.18645 2.0897344,0.74557 0.217446,0.21566 0.395355,0.43147 0.395355,0.47958 0,0.0481 -0.213739,0.19287 -0.474977,0.32169 l -0.474978,0.23422 -0.254834,-0.23275 c -0.332994,-0.30415 -0.816485,-0.46301 -1.4090934,-0.46301 -0.532744,0 -0.8987757,0.12271 -1.1407406,0.38242 -0.1591281,0.17081 -0.2114699,0.52874 -0.1143358,0.78186 0.081497,0.21238 0.5667876,0.39669 1.3838686,0.5256 1.3394672,0.21131 1.9325282,0.44434 2.3165432,0.91021 0.379191,0.46003 0.501706,1.20396 0.305903,1.85749 -0.112321,0.37489 -0.593638,0.92522 -0.982875,1.12379 -0.671525,0.34259 -1.8394024,0.45158 -2.7398826,0.2557 z m 35.4397348,-0.008 c -0.372661,-0.0991 -1.204892,-0.58121 -1.204892,-0.69806 0,-0.0257 0.122091,-0.22392 0.271313,-0.44059 l 0.271312,-0.39393 0.237002,0.17845 c 0.560204,0.4218 1.607716,0.5779 1.98685,0.29607 0.114455,-0.0851 0.218176,-0.23782 0.230491,-0.33943 0.03542,-0.29225 -0.195009,-0.43263 -0.84553,-0.5151 -1.067203,-0.13531 -1.496115,-0.32828 -1.829597,-0.82313 -0.298182,-0.44247 -0.195807,-1.18635 0.215358,-1.56481 0.386077,-0.35538 0.879788,-0.50819 1.648251,-0.51016 0.661414,-0.002 0.756265,0.0175 1.223719,0.24763 0.278701,0.1372 0.50534,0.28969 0.503641,0.33887 -0.0017,0.0492 -0.131758,0.23161 -0.289021,0.4054 l -0.285933,0.31598 -0.36384,-0.1842 c -0.506306,-0.25632 -1.220191,-0.26049 -1.512758,-0.009 -0.162209,0.13953 -0.193661,0.21602 -0.153921,0.37436 0.06636,0.26438 0.234759,0.34312 0.919619,0.42995 1.043986,0.13236 1.495877,0.32967 1.764655,0.77051 0.178425,0.29263 0.201079,0.91922 0.0466,1.28893 -0.318965,0.76339 -1.636302,1.15027 -2.833321,0.8321 z m 29.951693,0.0381 c -0.68123,-0.16049 -1.204373,-0.59122 -1.501089,-1.23591 -0.147747,-0.32102 -0.173295,-0.49944 -0.173295,-1.21022 0,-0.77904 0.0149,-0.86281 0.227255,-1.27805 0.620903,-1.21408 2.419693,-1.62711 3.387085,-0.77772 l 0.263906,0.23171 v -0.27137 -0.27137 h 0.602446 0.602446 v 2.37213 2.37213 h -0.602446 -0.602446 v -0.29129 -0.29129 l -0.266881,0.2517 c -0.436095,0.41129 -1.209769,0.57088 -1.936981,0.39955 z m 1.503999,-1.17303 c 0.565777,-0.26848 0.830044,-1.04171 0.608612,-1.78079 -0.340546,-1.13664 -1.970878,-1.24953 -2.507039,-0.1736 -0.240464,0.48255 -0.240963,0.88968 -0.0017,1.36986 0.351487,0.70535 1.13656,0.94686 1.900106,0.58453 z m 6.944917,1.15685 c -0.995693,-0.2825 -1.546916,-0.90861 -1.731104,-1.9663 -0.101008,-0.58002 -0.01024,-1.22934 0.240554,-1.72095 0.453951,-0.88981 1.59158,-1.38523 2.715669,-1.18263 1.233312,0.22228 1.867741,1.0187 1.867741,2.34465 v 0.51216 l -1.846452,0.0201 -1.846445,0.0201 0.170892,0.33451 c 0.235669,0.4613 0.605699,0.64457 1.300485,0.64413 0.429167,-3.1e-4 0.592332,-0.0371 0.877892,-0.19791 l 0.350759,-0.19757 0.364645,0.37258 0.364653,0.37258 -0.225917,0.18359 c -0.55123,0.44794 -1.84295,0.67662 -2.603372,0.46088 z m 1.963273,-3.06846 c 0,-0.22281 -0.264233,-0.5481 -0.550959,-0.67828 -0.631966,-0.28692 -1.480549,-0.0987 -1.781682,0.39524 -0.08354,0.13702 -0.152012,0.27454 -0.15217,0.3056 0,0.0311 0.558867,0.0565 1.242266,0.0565 0.817346,0 1.242545,-0.0271 1.242545,-0.079 z m 19.272948,3.06846 c -0.99569,-0.2825 -1.54692,-0.90861 -1.73111,-1.9663 -0.101,-0.58002 -0.0102,-1.22934 0.24056,-1.72095 0.45395,-0.88981 1.59158,-1.38523 2.71567,-1.18263 1.233314,0.22228 1.867754,1.0187 1.867754,2.34465 v 0.51216 l -1.846474,0.0201 -1.84644,0.0201 0.1709,0.33451 c 0.23566,0.4613 0.60569,0.64457 1.30048,0.64413 0.42916,-3.1e-4 0.59233,-0.0371 0.877894,-0.19791 l 0.35076,-0.19757 0.36464,0.37258 0.36466,0.37258 -0.22592,0.18359 c -0.55123,0.44794 -1.842954,0.67662 -2.603374,0.46088 z m 1.963274,-3.06846 c 0,-0.22281 -0.26423,-0.5481 -0.550964,-0.67828 -0.63196,-0.28692 -1.48054,-0.0987 -1.78168,0.39524 -0.0835,0.13702 -0.15201,0.27454 -0.15217,0.3056 0,0.0311 0.55887,0.0565 1.24227,0.0565 0.81734,0 1.242544,-0.0271 1.242544,-0.079 z m 24.1355,3.06124 c -0.69451,-0.21965 -1.11964,-0.58572 -1.40812,-1.21251 -0.14775,-0.32102 -0.1733,-0.49944 -0.1733,-1.21022 0,-0.77904 0.0149,-0.86281 0.22726,-1.27805 0.6209,-1.21408 2.41969,-1.62711 3.38708,-0.77772 l 0.26391,0.23171 v -0.27137 -0.27137 h 0.60244 0.60245 v 2.37213 2.37213 h -0.60245 -0.60244 v -0.29129 -0.29129 l -0.26689,0.2517 c -0.45573,0.42982 -1.34135,0.59392 -2.02994,0.37615 z m 1.59697,-1.14963 c 0.56577,-0.26848 0.83004,-1.04171 0.60861,-1.78079 -0.34055,-1.13664 -1.97088,-1.24953 -2.50704,-0.1736 -0.24047,0.48255 -0.24096,0.88968 -0.002,1.36986 0.35149,0.70535 1.13656,0.94686 1.90011,0.58453 z m 26.11555,1.14963 c -0.69452,-0.21965 -1.11965,-0.58572 -1.40813,-1.21251 -0.14774,-0.32102 -0.17329,-0.49944 -0.17329,-1.21022 0,-0.77904 0.0149,-0.86281 0.22726,-1.27805 0.6209,-1.21408 2.41968,-1.62711 3.38708,-0.77772 l 0.2639,0.23171 v -0.27137 -0.27137 h 0.60245 0.60245 v 2.37213 2.37213 h -0.60245 -0.60245 v -0.29129 -0.29129 l -0.26688,0.2517 c -0.45573,0.42982 -1.34135,0.59392 -2.02994,0.37615 z m 1.59696,-1.14963 c 0.56577,-0.26848 0.83005,-1.04171 0.60862,-1.78079 -0.34055,-1.13664 -1.97088,-1.24953 -2.50705,-0.1736 -0.24046,0.48255 -0.24096,0.88968 -0.002,1.36986 0.35149,0.70535 1.13656,0.94686 1.90011,0.58453 z m 9.84951,1.14963 c -0.69451,-0.21965 -1.11964,-0.58572 -1.40812,-1.21251 -0.14775,-0.32102 -0.1733,-0.49944 -0.1733,-1.21022 0,-0.77904 0.0149,-0.86281 0.22726,-1.27805 0.6209,-1.21408 2.41969,-1.62711 3.38708,-0.77772 l 0.26391,0.23171 v -0.27137 -0.27137 h 0.60244 0.60245 v 2.37213 2.37213 h -0.60245 -0.60244 v -0.29129 -0.29129 l -0.26689,0.2517 c -0.45573,0.42982 -1.34135,0.59392 -2.02994,0.37615 z m 1.59697,-1.14963 c 0.56577,-0.26848 0.83004,-1.04171 0.60861,-1.78079 -0.34055,-1.13664 -1.97088,-1.24953 -2.50704,-0.1736 -0.24047,0.48255 -0.24096,0.88968 -0.002,1.36986 0.35149,0.70535 1.13656,0.94686 1.90011,0.58453 z m 9.73122,1.15685 c -0.99569,-0.2825 -1.54691,-0.90861 -1.7311,-1.9663 -0.21355,-1.2263 0.3674,-2.35519 1.42209,-2.76335 0.32168,-0.12449 0.58919,-0.16557 1.08228,-0.16617 0.58532,-6.8e-4 0.70695,0.0248 1.14364,0.23977 0.80202,0.39483 1.17595,1.07239 1.17595,2.13082 v 0.51216 l -1.84645,0.0201 -1.84644,0.0201 0.17089,0.33451 c 0.23567,0.4613 0.6057,0.64457 1.30048,0.64413 0.42917,-3.1e-4 0.59234,-0.0371 0.8779,-0.19791 l 0.35076,-0.19757 0.36464,0.37258 0.36465,0.37258 -0.22591,0.18359 c -0.55123,0.44794 -1.84295,0.67662 -2.60338,0.46088 z m 1.96328,-3.06846 c 0,-0.22281 -0.26423,-0.5481 -0.55096,-0.67828 -0.63197,-0.28692 -1.48055,-0.0987 -1.78168,0.39524 -0.0835,0.13702 -0.15201,0.27454 -0.15217,0.3056 0,0.0311 0.55886,0.0565 1.24226,0.0565 0.81735,0 1.24255,-0.0271 1.24255,-0.079 z m 12.1189,3.06846 c -0.99569,-0.2825 -1.54692,-0.90861 -1.73111,-1.9663 -0.101,-0.58002 -0.0102,-1.22934 0.24056,-1.72095 0.45395,-0.88981 1.59158,-1.38523 2.71567,-1.18263 1.23331,0.22228 1.86774,1.0187 1.86774,2.34465 v 0.51216 l -1.84645,0.0201 -1.84645,0.0201 0.17089,0.33451 c 0.23567,0.4613 0.6057,0.64457 1.30049,0.64413 0.42917,-3.1e-4 0.59233,-0.0371 0.87789,-0.19791 l 0.35076,-0.19757 0.36465,0.37258 0.36465,0.37258 -0.22592,0.18359 c -0.55123,0.44794 -1.84295,0.67662 -2.60337,0.46088 z m 1.96327,-3.06846 c 0,-0.22281 -0.26423,-0.5481 -0.55096,-0.67828 -0.63196,-0.28692 -1.48054,-0.0987 -1.78168,0.39524 -0.0835,0.13702 -0.15201,0.27454 -0.15217,0.3056 0,0.0311 0.55887,0.0565 1.24227,0.0565 0.81734,0 1.24254,-0.0271 1.24254,-0.079 z M 9.5122228,291.67709 c -1.258175,-0.35711 -1.963699,-1.65316 -1.623278,-2.98195 0.304813,-1.1898 1.285109,-1.88768 2.5250252,-1.79757 0.995805,0.0724 1.773419,0.63608 2.110477,1.52995 0.231831,0.61481 0.193463,1.48127 -0.08987,2.02944 -0.248488,0.48077 -0.673717,0.89033 -1.136347,1.0945 -0.45198,0.19946 -1.3126001,0.26 -1.7860072,0.12563 z m 1.2861832,-1.12599 c 1.282405,-0.64786 0.735464,-2.73587 -0.680992,-2.59977 -0.6975352,0.067 -1.1296192,0.60049 -1.1273702,1.39187 0.0017,0.58409 0.222608,0.98009 0.673954,1.2079 0.1846321,0.0932 0.4399412,0.16943 0.5673522,0.16943 0.127412,0 0.382587,-0.0762 0.567056,-0.16943 z m 6.195512,1.10442 c -0.441236,-0.16271 -0.888164,-0.63587 -1.076784,-1.14 -0.125044,-0.33421 -0.166425,-0.66771 -0.202749,-1.63398 -0.0251,-0.66773 -0.02161,-1.37431 0.0078,-1.57018 l 0.0534,-0.35611 h 0.560178 0.560179 v 1.41485 c 0,1.31914 0.01146,1.4372 0.169438,1.74529 0.430742,0.84002 1.620855,0.77949 2.021551,-0.10281 0.120072,-0.26439 0.140419,-0.50583 0.141836,-1.683 l 0.0017,-1.37433 h 0.564793 0.564793 v 2.41322 2.41323 l -0.508314,-0.0223 -0.508314,-0.0223 -0.03765,-0.3317 -0.03765,-0.33171 -0.225918,0.18933 c -0.124254,0.10412 -0.344253,0.25003 -0.488887,0.32423 -0.35599,0.18264 -1.154294,0.21756 -1.559318,0.0682 z m 5.964104,0.0486 c -0.312771,-0.0765 -0.803831,-0.3372 -0.951067,-0.50494 -0.351979,-0.40102 -0.399368,-0.61833 -0.428709,-1.96597 -0.02648,-1.21636 -0.03739,-1.29902 -0.171443,-1.29902 -0.125993,0 -0.14316,-0.0587 -0.14316,-0.48949 0,-0.43928 0.01545,-0.48948 0.150611,-0.48948 0.143174,0 0.150612,-0.0502 0.150612,-1.01663 v -1.01663 h 0.602446 0.602446 v 1.01663 1.01663 h 0.225917 0.225917 v 0.48948 0.48949 h -0.225917 -0.225917 v 1.19177 c 0,1.13884 0.0075,1.19878 0.169438,1.34992 0.09319,0.087 0.262629,0.18128 0.376529,0.20955 0.200912,0.0499 0.20709,0.0669 0.20709,0.57038 0,0.5724 -0.01351,0.58312 -0.564793,0.44831 z m 5.00411,-0.0271 c -1.258174,-0.35711 -1.963698,-1.65316 -1.623278,-2.98195 0.304813,-1.1898 1.28511,-1.88768 2.525025,-1.79757 0.995805,0.0724 1.773419,0.63608 2.110477,1.52995 0.231831,0.61481 0.193463,1.48127 -0.08987,2.02944 -0.248488,0.48077 -0.673717,0.89033 -1.136347,1.0945 -0.45198,0.19946 -1.3126,0.26 -1.786007,0.12563 z m 1.286183,-1.12599 c 1.282405,-0.64786 0.735464,-2.73587 -0.680992,-2.59977 -0.697534,0.067 -1.129618,0.60049 -1.12737,1.39187 0.0017,0.58409 0.222609,0.98009 0.673954,1.2079 0.184632,0.0932 0.439941,0.16943 0.567352,0.16943 0.127412,0 0.382587,-0.0762 0.567056,-0.16943 z m 19.121675,1.12599 c -1.258174,-0.35711 -1.963697,-1.65316 -1.623277,-2.98195 0.304813,-1.1898 1.285109,-1.88768 2.525024,-1.79757 0.995806,0.0724 1.773419,0.63608 2.110477,1.52995 0.231832,0.61481 0.193464,1.48127 -0.08987,2.02944 -0.248488,0.48077 -0.673717,0.89033 -1.136347,1.0945 -0.45198,0.19946 -1.312601,0.26 -1.786009,0.12563 z m 1.286183,-1.12599 c 1.282406,-0.64786 0.735464,-2.73587 -0.680991,-2.59977 -0.697535,0.067 -1.129619,0.60049 -1.12737,1.39187 0.0017,0.58409 0.222608,0.98009 0.673953,1.2079 0.184633,0.0932 0.439942,0.16943 0.567353,0.16943 0.127411,0 0.382586,-0.0762 0.567055,-0.16943 z m 24.585066,1.15305 c -0.312771,-0.0765 -0.803832,-0.3372 -0.951067,-0.50494 -0.351979,-0.40102 -0.399369,-0.61833 -0.42871,-1.96597 -0.02648,-1.21636 -0.03739,-1.29902 -0.171443,-1.29902 -0.125993,0 -0.14316,-0.0587 -0.14316,-0.48949 0,-0.43928 0.01545,-0.48948 0.150612,-0.48948 0.143174,0 0.150611,-0.0502 0.150611,-1.01663 v -1.01663 h 0.602446 0.602446 v 1.01663 1.01663 h 0.225918 0.225917 v 0.48948 0.48949 h -0.225917 -0.225918 v 1.19177 c 0,1.13884 0.0075,1.19878 0.169438,1.34992 0.09319,0.087 0.262629,0.18128 0.376529,0.20955 0.200912,0.0499 0.207091,0.0669 0.207091,0.57038 0,0.5724 -0.01351,0.58312 -0.564793,0.44831 z m 21.160917,0 c -0.31277,-0.0765 -0.80383,-0.3372 -0.951068,-0.50494 -0.351979,-0.40102 -0.399369,-0.61833 -0.428708,-1.96597 -0.02648,-1.21636 -0.0374,-1.29902 -0.171448,-1.29902 -0.125987,0 -0.143156,-0.0587 -0.143156,-0.48949 0,-0.43928 0.01544,-0.48948 0.150611,-0.48948 0.143171,0 0.150612,-0.0502 0.150612,-1.01663 v -1.01663 h 0.602446 0.602441 v 1.01663 1.01663 h 0.22592 0.22592 v 0.48948 0.48949 h -0.22592 -0.22592 v 1.19177 c 0,1.13884 0.007,1.19878 0.16944,1.34992 0.0932,0.087 0.26263,0.18128 0.37653,0.20955 0.20091,0.0499 0.20709,0.0669 0.20709,0.57038 0,0.5724 -0.0135,0.58312 -0.56479,0.44831 z m 18.977054,0 c -0.31276,-0.0765 -0.80383,-0.3372 -0.95106,-0.50494 -0.35198,-0.40102 -0.39937,-0.61833 -0.42871,-1.96597 -0.0265,-1.21636 -0.0374,-1.29902 -0.17145,-1.29902 -0.12599,0 -0.14316,-0.0587 -0.14316,-0.48949 0,-0.43928 0.0155,-0.48948 0.15062,-0.48948 0.14317,0 0.15061,-0.0502 0.15061,-1.01663 v -1.01663 h 0.60244 0.60245 v 1.01663 1.01663 h 0.22592 0.22591 v 0.48948 0.48949 h -0.22591 -0.22592 v 1.19177 c 0,1.13884 0.008,1.19878 0.16944,1.34992 0.0932,0.087 0.26263,0.18128 0.37653,0.20955 0.2009,0.0499 0.20709,0.0669 0.20709,0.57038 0,0.5724 -0.0135,0.58312 -0.5648,0.44831 z m 21.63041,-0.007 c -1.27388,-0.3201 -1.99946,-1.58242 -1.7115,-2.97754 0.1263,-0.61189 0.30737,-0.93828 0.72398,-1.30499 0.45844,-0.40353 0.99423,-0.56531 1.71694,-0.51842 0.5656,0.0367 0.92839,0.1786 1.26735,0.49574 l 0.20709,0.19376 v -1.29429 -1.29429 h 0.5648 0.56479 v 3.35111 3.35111 h -0.56479 -0.5648 v -0.30123 c 0,-0.29709 -0.0955,-0.40273 -0.17559,-0.19414 -0.0226,0.0589 -0.19819,0.19915 -0.39022,0.31168 -0.38968,0.22837 -1.12659,0.31002 -1.63805,0.1815 z m 1.09076,-1.05541 c 0.87288,-0.24242 1.25801,-1.24888 0.78605,-2.05421 -0.68216,-1.16403 -2.4538,-0.66987 -2.45802,0.68561 -0.002,0.68205 0.29041,1.12842 0.87646,1.33738 0.35472,0.12647 0.44044,0.12983 0.79551,0.0312 z m 5.25492,-2.25585 v -3.38876 h 0.93128 0.93129 l 0.93125,2.25917 c 0.51219,1.24254 0.94935,2.25917 0.97147,2.25917 0.0221,0 0.45927,-1.01663 0.97146,-2.25917 l 0.93126,-2.25917 h 0.89363 0.89363 v 3.38876 3.38875 h -0.60245 -0.60244 l -0.006,-2.42861 -0.006,-2.42861 -0.14036,0.30123 c -0.0772,0.16567 -0.52347,1.25907 -0.99171,2.42977 l -0.85134,2.12855 -0.51808,-0.02 -0.51808,-0.02 -0.95038,-2.40846 -0.95039,-2.40845 -0.0199,2.42728 -0.0199,2.42728 h -0.63906 -0.63905 v -3.38875 z m 57.49594,3.31809 c -0.31277,-0.0765 -0.80383,-0.3372 -0.95107,-0.50494 -0.35197,-0.40102 -0.39936,-0.61833 -0.4287,-1.96597 -0.0265,-1.21636 -0.0374,-1.29902 -0.17145,-1.29902 -0.12599,0 -0.14316,-0.0587 -0.14316,-0.48949 0,-0.43928 0.0155,-0.48948 0.15061,-0.48948 0.14317,0 0.15061,-0.0502 0.15061,-1.01663 v -1.01663 h 0.60245 0.60245 v 1.01663 1.01663 h 0.22591 0.22592 v 0.48948 0.48949 h -0.22592 -0.22591 v 1.19177 c 0,1.13884 0.008,1.19878 0.16943,1.34992 0.0932,0.087 0.26263,0.18128 0.37653,0.20955 0.20091,0.0499 0.20709,0.0669 0.20709,0.57038 0,0.5724 -0.0135,0.58312 -0.56479,0.44831 z M 13.507151,288.34844 v -3.3511 h 0.564793 0.564793 v 3.3511 3.35111 h -0.564793 -0.564793 z m 10.61811,0.97898 v -2.37213 h 0.602447 0.602446 v 2.37213 2.37213 h -0.602446 -0.602447 z m 7.831799,0 v -2.37213 h 0.570182 c 0.545163,0 0.56958,0.007 0.556457,0.16943 -0.0075,0.0932 -0.01,0.19515 -0.0054,0.22656 0.0046,0.0314 0.203189,-0.0533 0.441344,-0.18826 0.38973,-0.22086 0.493221,-0.24528 1.035454,-0.24434 0.680214,0.001 0.94862,0.10573 1.412467,0.55015 0.509184,0.48785 0.602908,0.87755 0.641678,2.66812 l 0.03383,1.5626 h -0.61097 -0.610981 l -0.0012,-1.44964 c -0.0012,-1.36232 -0.01144,-1.46778 -0.170573,-1.75086 -0.416119,-0.74022 -1.419711,-0.74475 -1.969749,-0.009 -0.142564,0.19073 -0.157164,0.3305 -0.178481,1.70855 l -0.02321,1.50084 h -0.560404 -0.560403 z m 12.651366,0.56479 v -1.80734 H 44.379068 44.14971 l 0.02227,-0.50831 c 0.02127,-0.48551 0.0311,-0.50934 0.219238,-0.53117 0.178685,-0.0207 0.200808,-0.06 0.238311,-0.4234 0.09337,-0.90467 0.733528,-1.54518 1.673038,-1.67395 l 0.339117,-0.0465 v 0.49374 c 0,0.48637 -0.0033,0.49447 -0.223882,0.54291 -0.325814,0.0716 -0.604481,0.43664 -0.604481,0.79193 0,0.26087 0.02109,0.29287 0.207091,0.31428 0.20053,0.0231 0.207796,0.0399 0.229358,0.53214 l 0.02227,0.50831 h -0.229358 -0.229358 v 1.80734 1.80734 h -0.602446 -0.602446 z m 7.756492,-0.56796 v -2.3753 l 0.583093,0.022 c 0.578389,0.0218 0.583402,0.0238 0.621273,0.24086 0.03517,0.20162 0.04668,0.2086 0.1461,0.0886 0.161925,-0.19541 0.646701,-0.42045 0.905707,-0.42045 h 0.228917 v 0.55641 0.55641 l -0.282397,0.0524 c -0.155318,0.0288 -0.393352,0.12056 -0.528965,0.20392 -0.432468,0.26582 -0.468836,0.4222 -0.468836,2.01592 v 1.43455 h -0.602446 -0.602446 z m 5.985384,-0.88168 c -0.654927,-1.79133 -1.20573,-3.29933 -1.224006,-3.3511 -0.02507,-0.071 0.14156,-0.0941 0.678312,-0.0941 h 0.711541 l 0.09317,0.32005 c 0.05124,0.17602 0.402142,1.26563 0.779779,2.42135 l 0.686614,2.10131 0.699278,-2.10131 c 0.384602,-1.15572 0.753508,-2.24533 0.81979,-2.42135 l 0.120512,-0.32005 h 0.399735 0.399734 l 0.375418,1.0731 c 0.206479,0.59021 0.57447,1.65737 0.817756,2.37147 0.243285,0.71409 0.46067,1.29865 0.483075,1.29902 0.02241,3.8e-4 0.377106,-1.06679 0.788222,-2.37146 l 0.747484,-2.37213 h 0.704141 c 0.637138,0 0.699963,0.0125 0.660224,0.13178 -0.02415,0.0725 -0.56277,1.57201 -1.196922,3.33228 l -1.153004,3.2005 h -0.548936 -0.548935 l -0.442481,-1.12959 c -0.243364,-0.62127 -0.581819,-1.54684 -0.752122,-2.05682 -0.170303,-0.50998 -0.323851,-0.91302 -0.341219,-0.89565 -0.01737,0.0174 -0.197296,0.52625 -0.399842,1.13085 -0.202545,0.6046 -0.532064,1.52443 -0.732264,2.04406 l -0.364,0.9448 H 60.07622 59.541084 Z m 22.630802,0.88168 v -2.3753 l 0.583092,0.022 c 0.578386,0.0218 0.583401,0.0238 0.621272,0.24086 0.03517,0.20162 0.04669,0.2086 0.146101,0.0886 0.161923,-0.19541 0.646703,-0.42045 0.90571,-0.42045 h 0.228914 v 0.55641 0.55641 l -0.282396,0.0524 c -0.155318,0.0288 -0.393352,0.12056 -0.528963,0.20392 -0.432473,0.26582 -0.468838,0.4222 -0.468838,2.01592 v 1.43455 H 81.58355 80.981104 Z m 5.120791,-0.97581 v -3.3511 h 0.640099 0.640098 v 3.3511 3.35111 h -0.640098 -0.640099 z m 2.334478,0.97898 v -2.37213 h 0.564793 0.564793 v 0.22656 0.22656 l 0.433008,-0.24539 c 0.38973,-0.22086 0.493223,-0.24528 1.035454,-0.24434 0.680215,0.001 0.948619,0.10573 1.412465,0.55015 0.509188,0.48785 0.602913,0.87755 0.64168,2.66812 l 0.03383,1.5626 h -0.610985 -0.610978 l -0.0012,-1.44964 c -0.0011,-1.36232 -0.01143,-1.46778 -0.170568,-1.75086 -0.416124,-0.74022 -1.419709,-0.74475 -1.96975,-0.009 -0.142561,0.19073 -0.157163,0.3305 -0.178482,1.70855 l -0.02325,1.50084 H 88.99678 88.436377 Z m 19.052367,-0.003 v -2.3753 l 0.58309,0.022 c 0.57839,0.0218 0.5834,0.0238 0.62127,0.24086 0.0352,0.20161 0.0467,0.2086 0.1461,0.0886 0.16192,-0.19541 0.64671,-0.42045 0.90571,-0.42045 h 0.22892 v 0.55641 0.55641 l -0.2824,0.0524 c -0.15532,0.0288 -0.39335,0.12056 -0.52896,0.20391 -0.43248,0.26583 -0.46884,0.4222 -0.46884,2.01593 v 1.43455 h -0.60245 -0.60244 z m 3.08753,0.003 v -2.37213 h 0.60245 0.60244 v 2.37213 2.37213 h -0.60244 -0.60245 z m 18.22399,0 v -2.37213 h 0.5648 0.56479 v 0.22656 0.22656 l 0.43301,-0.24539 c 0.38973,-0.22086 0.49322,-0.24528 1.03545,-0.24434 0.68022,0.001 0.94862,0.10573 1.41247,0.55015 0.50919,0.48785 0.60291,0.87755 0.64168,2.66812 l 0.0338,1.5626 h -0.61098 -0.61098 l -0.001,-1.44964 c -10e-4,-1.36232 -0.0114,-1.46778 -0.17056,-1.75086 -0.41613,-0.74022 -1.41971,-0.74475 -1.96975,-0.009 -0.14256,0.19073 -0.15717,0.3305 -0.17849,1.70855 l -0.0232,1.50084 h -0.5604 -0.56041 z m 27.63722,0 v -2.37213 h 0.56479 0.56479 v 0.22656 0.22656 l 0.43301,-0.24539 c 0.38973,-0.22086 0.49322,-0.24528 1.03545,-0.24434 0.68022,0.001 0.94862,0.10573 1.41247,0.55015 0.50919,0.48785 0.60291,0.87755 0.64168,2.66812 l 0.0338,1.5626 h -0.61098 -0.61098 l -0.001,-1.44964 c -0.001,-1.36232 -0.0114,-1.46778 -0.17057,-1.75086 -0.41612,-0.74022 -1.41971,-0.74475 -1.96975,-0.009 -0.14256,0.19073 -0.15716,0.3305 -0.17848,1.70855 l -0.0232,1.50084 h -0.5604 -0.5604 z m 22.2905,0 v -2.37213 h 0.60244 0.60245 v 0.23261 0.23261 l 0.22826,-0.19207 c 0.42563,-0.35814 1.09787,-0.44401 1.61985,-0.20691 0.28705,0.13039 0.71229,0.54268 0.71229,0.69061 0,0.0371 0.14927,-0.0817 0.33172,-0.26419 0.40724,-0.40722 0.75321,-0.51899 1.49124,-0.48172 0.77478,0.0391 1.2067,0.30141 1.52699,0.92727 l 0.22707,0.44371 0.0251,1.68117 0.0251,1.68117 h -0.57105 -0.57106 l -7.5e-4,-1.33668 c -7.5e-4,-1.42181 -0.0568,-1.78445 -0.32561,-2.09702 -0.23512,-0.27334 -0.74629,-0.32408 -1.09032,-0.10824 -0.45841,0.28759 -0.53806,0.60737 -0.53994,2.16761 l -0.001,1.37433 h -0.5648 -0.56479 l -7.5e-4,-1.33668 c -7.6e-4,-1.47631 -0.0619,-1.82477 -0.37742,-2.14028 -0.17635,-0.17636 -0.27708,-0.21302 -0.58519,-0.21302 -0.26338,0 -0.4306,0.046 -0.57209,0.15726 -0.39027,0.30698 -0.42283,0.46566 -0.42283,2.06052 v 1.4722 h -0.60245 -0.60244 v -2.37213 z m 14.15748,0 v -2.37213 h 0.56479 0.5648 v 0.22656 0.22656 l 0.433,-0.24539 c 0.38973,-0.22086 0.49323,-0.24528 1.03546,-0.24434 0.68021,0.001 0.94862,0.10573 1.41246,0.55015 0.50919,0.48785 0.60291,0.87755 0.64168,2.66812 l 0.0338,1.5626 h -0.61099 -0.61098 l -0.001,-1.44964 c -0.001,-1.36232 -0.0114,-1.46778 -0.17056,-1.75086 -0.41613,-0.74022 -1.41971,-0.74475 -1.96975,-0.009 -0.14257,0.19073 -0.15717,0.3305 -0.17849,1.70855 l -0.0232,1.50084 h -0.5604 -0.5604 z M 24.125261,285.59978 v -0.52714 h 0.564794 0.564793 v 0.52714 0.52714 h -0.564793 -0.564794 z m 86.451009,0 v -0.52714 h 0.5648 0.56479 v 0.52714 0.52714 h -0.56479 -0.5648 z m -46.840183,-7.23235 c -3.356909,-0.45817 -5.568849,-1.87226 -6.859781,-4.38544 -0.210353,-0.40951 -0.371087,-0.75448 -0.357189,-0.7666 0.0528,-0.046 3.191625,-1.66117 3.268523,-1.68187 0.04441,-0.012 0.177172,0.15748 0.295026,0.37653 0.696332,1.29423 1.996212,2.25744 3.653421,2.70717 0.567492,0.15401 0.810938,0.17385 2.146213,0.17495 1.71133,10e-4 2.227365,-0.0866 3.198728,-0.54554 1.149691,-0.54318 1.750334,-1.4244 1.757859,-2.579 0.009,-1.37704 -0.957496,-2.31071 -2.919577,-2.8205 -0.401162,-0.10424 -1.379232,-0.27638 -2.173489,-0.38255 -2.332409,-0.31178 -4.038105,-0.7423 -5.134923,-1.29607 -1.471306,-0.74283 -2.398692,-1.78524 -2.886282,-3.24423 -0.174942,-0.52348 -0.193333,-0.69328 -0.197099,-1.81989 -0.0039,-1.17381 0.0079,-1.27944 0.214398,-1.90937 0.593748,-1.81157 2.166346,-3.19128 4.459395,-3.91244 1.310951,-0.41228 1.741171,-0.46622 3.718643,-0.46622 1.638303,0 1.929487,0.019 2.599239,0.16914 2.106317,0.47235 3.340185,1.11504 4.485418,2.33633 0.507097,0.54077 1.125569,1.44149 1.12241,1.63463 -6.77e-4,0.0424 -0.709012,0.43619 -1.574043,0.87519 l -1.572784,0.79816 -0.214468,-0.27903 c -0.579497,-0.75397 -1.93466,-1.56883 -3.151392,-1.89494 -0.823091,-0.2206 -2.580212,-0.23942 -3.464065,-0.0371 -1.703325,0.38991 -2.689493,1.35664 -2.701225,2.64799 -0.0085,0.93168 0.396159,1.49162 1.419549,1.96445 0.752554,0.3477 1.478434,0.51281 3.594418,0.81758 1.981036,0.28533 3.55503,0.64618 4.445934,1.01927 2.701117,1.13116 3.907201,2.87816 3.92631,5.68723 0.01269,1.86583 -0.488252,3.21032 -1.636796,4.39301 -1.13807,1.1719 -2.673009,1.91671 -4.773703,2.31638 -0.761879,0.14495 -3.879065,0.21328 -4.688668,0.10278 z m 20.744897,-0.54297 c -0.01912,-0.0518 -0.512275,-1.3988 -1.095895,-2.9934 -1.599359,-4.36983 -3.684055,-10.05973 -5.242282,-14.30809 -0.767162,-2.09162 -1.412141,-3.86225 -1.433272,-3.93473 -0.03599,-0.12343 0.104382,-0.13178 2.213681,-0.13178 h 2.252116 l 1.000768,3.06871 c 0.550425,1.68779 1.492335,4.5767 2.093131,6.41981 0.600797,1.84311 1.279438,3.92193 1.508088,4.61961 0.228922,0.6985 0.444553,1.23969 0.479879,1.20437 0.03527,-0.0353 0.722445,-2.02939 1.527042,-4.43135 0.804597,-2.40196 1.953469,-5.82437 2.553053,-7.60535 l 1.090149,-3.23815 h 1.336926 1.336918 l 0.71444,2.07091 c 0.39294,1.139 1.32355,3.83306 2.06802,5.9868 0.74446,2.15375 1.61369,4.66965 1.9316,5.59089 0.31791,0.92124 0.59948,1.67524 0.62571,1.67555 0.0262,3e-4 0.0646,-0.0587 0.0853,-0.13122 0.0207,-0.0725 0.687914,-2.18198 1.482724,-4.68778 0.79483,-2.5058 1.64333,-5.18292 1.88559,-5.94915 0.24225,-0.76624 0.65005,-2.05397 0.9062,-2.86162 0.25616,-0.80766 0.48303,-1.52777 0.50417,-1.60025 0.0355,-0.12171 0.21042,-0.13178 2.28881,-0.13178 1.23772,0 2.25039,0.0135 2.25039,0.0301 0,0.0299 -1.09507,3.09106 -3.08726,8.63011 -0.57351,1.5946 -1.67517,4.66142 -2.44811,6.81517 -1.59947,4.45676 -2.03577,5.66752 -2.10986,5.85502 -0.0475,0.12012 -0.2036,0.13179 -1.763144,0.13179 h -1.71106 l -0.68679,-1.75086 c -0.37773,-0.96298 -0.93076,-2.36084 -1.22895,-3.10637 -0.29819,-0.74552 -1.087937,-2.97093 -1.755003,-4.94534 -0.667058,-1.97441 -1.231046,-3.60804 -1.253299,-3.6303 -0.02225,-0.0222 -0.528066,1.45763 -1.124036,3.28862 -0.598319,1.83823 -1.484095,4.35765 -1.97795,5.6259 -0.491913,1.26325 -1.086278,2.79667 -1.320818,3.40759 l -0.426434,1.11076 h -1.71789 c -1.305568,0 -1.726241,-0.0226 -1.752658,-0.0941 z m 26.998956,-10.63693 v -10.73107 h 1.9956 1.99561 v 10.73107 10.73107 h -1.99561 -1.9956 z m 7.8067,10.68086 c -0.0276,-0.0276 -0.0502,-4.83965 -0.0502,-10.69342 v -10.64321 h 2.96405 2.96405 l 0.62189,1.48729 c 2.0172,4.82429 5.37268,12.79977 5.425,12.89447 0.0491,0.089 0.0775,0.0738 0.14109,-0.0753 0.12804,-0.30021 5.41995,-12.92339 5.72103,-13.64676 l 0.27393,-0.65817 2.9181,-7.6e-4 2.91809,-7.6e-4 v 10.69342 10.69342 h -1.9956 -1.9956 v -7.73391 c 0,-4.3748 -0.0284,-7.70282 -0.0653,-7.66236 -0.036,0.0394 -0.82035,1.91842 -1.74311,4.17571 -0.92277,2.25729 -1.96296,4.79886 -2.31154,5.64793 -0.81707,1.99023 -1.67567,4.08361 -2.00763,4.89487 l -0.26192,0.6401 h -1.63955 -1.63956 l -3.0916,-7.74164 -3.09161,-7.74165 -0.0192,7.76047 -0.0192,7.76048 h -1.9827 c -1.09049,0 -2.00529,-0.0226 -2.0329,-0.0502 z m -45.911417,-28.7576 c -2.369312,-0.23323 -5.208143,-0.82294 -7.417617,-1.54086 -2.364633,-0.76833 -5.389686,-2.12358 -7.725532,-3.4611 -1.537004,-0.8801 -5.332544,-3.42385 -5.242739,-3.51365 0.01236,-0.0124 1.884762,0.0129 4.160893,0.0563 4.599654,0.0875 6.546358,0.0527 9.108601,-0.16289 7.153404,-0.60186 14.187988,-2.21206 20.554667,-4.70492 2.209192,-0.865 3.602861,-1.4881 5.915305,-2.64466 2.803465,-1.40215 4.484815,-2.37218 7.530569,-4.3447 3.94378,-2.55409 6.84987,-4.06966 10.18691,-5.31266 5.91951,-2.20493 12.09845,-2.58137 18.55472,-1.13042 1.01692,0.22854 3.5011,0.92775 3.70851,1.04382 0.0762,0.0427 0.0328,0.0763 -0.15015,0.11637 -0.33372,0.0731 -3.10505,0.98566 -4.17328,1.37425 -5.23195,1.90327 -10.89151,4.70215 -16.66636,8.24218 -2.57438,1.57812 -3.90863,2.43838 -8.59872,5.54407 -6.894814,4.5656 -7.535554,4.96641 -10.128629,6.33581 -0.248509,0.13123 -0.922767,0.45896 -1.498344,0.72827 -3.726143,1.74347 -7.351724,2.79371 -11.416592,3.30712 -1.342514,0.16956 -5.265027,0.2092 -6.702212,0.0677 z m 32.887127,-3.19885 c -0.61,-0.0696 -2.32713,-0.36387 -2.36921,-0.40594 -0.0238,-0.0239 2.64683,-2.28191 4.68718,-3.96301 6.31176,-5.20048 10.48949,-8.05847 14.95867,-10.23323 4.10323,-1.99668 8.00536,-3.11653 12.07645,-3.46573 1.15647,-0.0992 4.02705,-0.0999 5.19609,-0.001 2.01373,0.16989 5.54937,0.80206 6.28803,1.12429 0.17283,0.0754 0.16694,0.0788 -0.0718,0.0413 -0.6652,-0.10447 -2.53055,-0.12757 -3.50523,-0.0434 -3.30613,0.28547 -6.46149,1.39602 -9.97773,3.51172 -1.83152,1.10201 -3.47823,2.26877 -7.00372,4.96238 -1.139,0.87024 -2.64611,2.00138 -3.34913,2.51365 -4.78515,3.48676 -8.15893,5.10416 -12.1262,5.81332 -1.02145,0.18259 -3.7551,0.26565 -4.80341,0.14595 z"
       style="fill:#ffffff;stroke-width:0.07530575" />
  </g>
</svg>
