<?xml version="1.0" encoding="UTF-8" standalone="no"?>
<!-- Created with Inkscape (http://www.inkscape.org/) -->

<svg
   xmlns:dc="http://purl.org/dc/elements/1.1/"
   xmlns:cc="http://creativecommons.org/ns#"
   xmlns:rdf="http://www.w3.org/1999/02/22-rdf-syntax-ns#"
   xmlns:svg="http://www.w3.org/2000/svg"
   xmlns="http://www.w3.org/2000/svg"
   xmlns:sodipodi="http://sodipodi.sourceforge.net/DTD/sodipodi-0.dtd"
   xmlns:inkscape="http://www.inkscape.org/namespaces/inkscape"
   width="512"
   height="512"
   viewBox="0 0 135.46666 135.46667"
   version="1.1"
   id="svg8"
   inkscape:version="0.92.3 (2405546, 2018-03-11)"
   sodipodi:docname="logo-black.svg">
  <defs
     id="defs2" />
  <sodipodi:namedview
     id="base"
     pagecolor="#ffffff"
     bordercolor="#666666"
     borderopacity="1.0"
     inkscape:pageopacity="0.0"
     inkscape:pageshadow="2"
     inkscape:zoom="1.4904861"
     inkscape:cx="280.51759"
     inkscape:cy="253.81177"
     inkscape:document-units="px"
     inkscape:current-layer="layer1"
     showgrid="false"
     units="px"
     inkscape:window-width="2560"
     inkscape:window-height="1408"
     inkscape:window-x="0"
     inkscape:window-y="0"
     inkscape:window-maximized="1" />
  <metadata
     id="metadata5">
    <rdf:RDF>
      <cc:Work
         rdf:about="">
        <dc:format>image/svg+xml</dc:format>
        <dc:type
           rdf:resource="http://purl.org/dc/dcmitype/StillImage" />
        <dc:title></dc:title>
      </cc:Work>
    </rdf:RDF>
  </metadata>
  <g
     inkscape:label="Layer 1"
     inkscape:groupmode="layer"
     id="layer1"
     transform="translate(0,-161.53331)">
    <path
       style="fill:#000000;stroke-width:0.10804812"
       d="m 29.460115,249.09565 c -3.399469,-0.33463 -7.472604,-1.18075 -10.64274,-2.21081 -3.392758,-1.10239 -7.733083,-3.04691 -11.084538,-4.96596 -2.2052816,-1.26277 -7.65109371,-4.91251 -7.52224387,-5.04137 0.0177163,-0.0178 2.70424297,0.0187 5.97002027,0.0806 6.5995496,0.12555 9.3926656,0.0756 13.0689536,-0.23372 10.26365,-0.86354 20.356816,-3.17384 29.491688,-6.75058 3.169727,-1.2411 5.169356,-2.13512 8.48723,-3.79454 4.022393,-2.01178 6.434773,-3.40359 10.804815,-6.23374 5.658497,-3.66459 9.828127,-5.83913 14.616072,-7.62256 8.493283,-3.16361 17.358768,-3.70375 26.622198,-1.62194 1.45906,0.32792 5.02334,1.33116 5.32093,1.49769 0.10932,0.0611 0.0471,0.10954 -0.21543,0.16696 -0.47882,0.10481 -4.45511,1.41421 -5.98781,1.97177 -7.50675,2.7308 -15.627031,6.7466 -23.912751,11.8258 -3.693699,2.26429 -5.608073,3.49858 -12.337384,7.9546 -9.892613,6.55069 -10.811936,7.12577 -14.53247,9.09057 -0.356554,0.1883 -1.323973,0.65851 -2.149811,1.04493 -5.346237,2.5015 -10.548207,4.00839 -16.380446,4.74501 -1.926221,0.2433 -7.55422,0.30016 -9.616283,0.0972 z m 47.186197,-4.58967 c -0.875224,-0.1 -3.338964,-0.52209 -3.399323,-0.58246 -0.03423,-0.0342 3.797656,-3.27405 6.725124,-5.68609 9.056071,-7.46161 15.050258,-11.56223 21.462597,-14.68255 5.88727,-2.86483 11.48602,-4.47159 17.32719,-4.97262 1.65929,-0.14232 5.77798,-0.14334 7.4553,-0.002 2.88929,0.24376 7.96222,1.1508 9.02204,1.61315 0.24797,0.10817 0.23951,0.11298 -0.10302,0.0592 -0.95441,-0.14989 -3.6308,-0.18304 -5.02926,-0.0623 -4.74361,0.4096 -9.27091,2.00299 -14.31599,5.0386 -2.62784,1.58116 -4.99052,3.2552 -10.04888,7.11999 -1.63423,1.2486 -3.79661,2.87156 -4.8053,3.60655 -6.865688,5.00277 -11.706359,7.3234 -17.398579,8.34091 -1.465581,0.26199 -5.38779,0.38116 -6.891899,0.20941 z"
       id="path4535"
       inkscape:connector-curvature="0" />
  </g>
</svg>
